<svg id="Layer_1" data-name="Layer 1" xmlns="http://www.w3.org/2000/svg" xmlns:xlink="http://www.w3.org/1999/xlink" viewBox="0 0 136.38 10.99"><defs><style>.cls-1{fill:url(#linear-gradient);}</style><linearGradient id="linear-gradient" x1="68.69" y1="22.75" x2="68.69" y2="11.75" gradientUnits="userSpaceOnUse"><stop offset="0.09" stop-color="#fbea7c"/><stop offset="0.2" stop-color="#f2de6e"/><stop offset="0.43" stop-color="#e1c755"/><stop offset="0.64" stop-color="#d7ba46"/><stop offset="0.81" stop-color="#d3b541"/></linearGradient></defs><title>footer-logo2</title><path class="cls-1" d="M5.4,22.58H3.34v-9H.5V11.92H8.23v1.65H5.4Z" transform="translate(-0.5 -11.75)"/><path class="cls-1" d="M17,22.58H14.89L14,20H9.94L9.1,22.58H7.46L11,11.92h2.37ZM13.52,18.5,12,13.75,10.41,18.5Z" transform="translate(-0.5 -11.75)"/><path class="cls-1" d="M20.15,22.58H18.23V11.92h4.36a3.66,3.66,0,0,1,2.77.94,3.12,3.12,0,0,1,.91,2.22,3.08,3.08,0,0,1-1,2.37,3.53,3.53,0,0,1-2.48.91H20.15Zm0-5.87h2.27a1.92,1.92,0,0,0,1.36-.44,1.52,1.52,0,0,0,.47-1.16A1.6,1.6,0,0,0,23.82,14a2.12,2.12,0,0,0-1.57-.47h-2.1Z" transform="translate(-0.5 -11.75)"/><path class="cls-1" d="M29.73,22.58H27.81V11.92h1.92Z" transform="translate(-0.5 -11.75)"/><path class="cls-1" d="M38,18.88l1.78.2a4.15,4.15,0,0,1-1.24,2.63,3.84,3.84,0,0,1-2.8,1A3.67,3.67,0,0,1,33.41,22,4.66,4.66,0,0,1,32,20a7.5,7.5,0,0,1-.49-2.77,6.41,6.41,0,0,1,1.15-4,4.06,4.06,0,0,1,5.82-.55,4.54,4.54,0,0,1,1.33,2.8L38,15.72c-.33-1.61-1-2.42-2.17-2.42a1.87,1.87,0,0,0-1.68,1,5.74,5.74,0,0,0-.6,2.91,5.47,5.47,0,0,0,.64,2.92,2,2,0,0,0,1.7,1,1.88,1.88,0,0,0,1.44-.66A2.71,2.71,0,0,0,38,18.88Z" transform="translate(-0.5 -11.75)"/><path class="cls-1" d="M48.27,22.58H41.34V11.92H48.2V13.5H43.27v2.9h4v1.54h-4v3h5Z" transform="translate(-0.5 -11.75)"/><path class="cls-1" d="M58.24,22.58h-2L54.55,18.2h-2.7v4.38H49.93V11.92h4.62a4,4,0,0,1,2.84.87A3,3,0,0,1,58.3,15a2.82,2.82,0,0,1-1.92,2.83Zm-6.39-5.92h2.39a2.29,2.29,0,0,0,1.55-.44A1.49,1.49,0,0,0,56.3,15a1.45,1.45,0,0,0-.5-1.14,2.08,2.08,0,0,0-1.4-.43H51.85Z" transform="translate(-0.5 -11.75)"/><path class="cls-1" d="M62.13,22.58H60.21V11.92h1.92Z" transform="translate(-0.5 -11.75)"/><path class="cls-1" d="M72.84,22.58h-2L69.94,20h-4.1L65,22.58H63.36L66.9,11.92h2.37ZM69.42,18.5l-1.55-4.75L66.31,18.5Z" transform="translate(-0.5 -11.75)"/><path class="cls-1" d="M86.49,22.58h-2L83.59,20H79.48l-.83,2.54H77l3.54-10.66h2.36ZM83.07,18.5l-1.55-4.75L80,18.5Z" transform="translate(-0.5 -11.75)"/><path class="cls-1" d="M96.09,22.58h-2L92.4,18.2H89.7v4.38H87.77V11.92H92.4a4,4,0,0,1,2.83.87A3,3,0,0,1,96.14,15a2.82,2.82,0,0,1-1.92,2.83ZM89.7,16.66h2.39a2.27,2.27,0,0,0,1.54-.44,1.49,1.49,0,0,0,.51-1.2,1.45,1.45,0,0,0-.5-1.14,2.06,2.06,0,0,0-1.4-.43H89.7Z" transform="translate(-0.5 -11.75)"/><path class="cls-1" d="M106.42,22.58h-2L103.52,20H99.41l-.83,2.54H96.94l3.54-10.66h2.36ZM103,18.5l-1.55-4.75L99.89,18.5Z" transform="translate(-0.5 -11.75)"/><path class="cls-1" d="M115.76,22.58h-1.87l-4-6.81-.3-.51-.29-.49v7.81H107.7V11.92h2.13l3.73,6.28.68,1.15V11.92h1.52Z" transform="translate(-0.5 -11.75)"/><path class="cls-1" d="M126.2,17.13v5.45h-.86l-.58-1.43a3.11,3.11,0,0,1-2.88,1.6,3.61,3.61,0,0,1-3.26-1.66,6.93,6.93,0,0,1-1.07-3.84,6.33,6.33,0,0,1,1.2-3.9,4,4,0,0,1,3.35-1.6,3.83,3.83,0,0,1,2.65.94A4.11,4.11,0,0,1,126.06,15l-1.67.3a2.18,2.18,0,0,0-2.24-2,2.22,2.22,0,0,0-1.85.92,4.57,4.57,0,0,0-.71,2.83c0,2.7.84,4,2.53,4a2.14,2.14,0,0,0,1.63-.68,2.49,2.49,0,0,0,.64-1.79h-2.2V17.13Z" transform="translate(-0.5 -11.75)"/><path class="cls-1" d="M132.3,22.75a3.87,3.87,0,0,1-3.3-1.6,6.39,6.39,0,0,1-1.19-3.93,6,6,0,0,1,1.26-3.9,4.07,4.07,0,0,1,3.32-1.57,4,4,0,0,1,3.29,1.57,6.27,6.27,0,0,1,1.2,3.92,6.11,6.11,0,0,1-1.25,4A4.12,4.12,0,0,1,132.3,22.75Zm0-1.55a2.23,2.23,0,0,0,1.76-.86,5,5,0,0,0,.72-3.12,5.82,5.82,0,0,0-.6-2.88,2,2,0,0,0-1.84-1q-2.48,0-2.47,4a5.51,5.51,0,0,0,.63,2.92A2,2,0,0,0,132.32,21.2Z" transform="translate(-0.5 -11.75)"/></svg>